<svg height="479pt" viewBox="-2 0 479 479.50655" width="479pt" xmlns="http://www.w3.org/2000/svg"><path d="m459.921875 294.597656c-8.976563-34.742187-12.335937-47.742187-22.367187-85.980468-5.320313-20.28125-25.300782-32.722657-44.53125-27.722657l-.601563.15625c-8.097656 2.105469-15.160156 7.0625-19.890625 13.960938-2.863281-4.011719-6.472656-7.433594-10.632812-10.074219-7.96875-5.1875-17.710938-6.894531-26.964844-4.726562-9.257813 2.164062-17.230469 8.015624-22.070313 16.199218-2.324219-2.582031-4.988281-4.835937-7.917969-6.695312-8.214843-5.332032-18.289062-6.976563-27.769531-4.53125l-.644531.167968c-6.980469 1.820313-13.214844 5.777344-17.835938 11.316407l-21.289062-81.933594c-2.433594-9.617187-8.433594-17.945313-16.789062-23.292969-8.195313-5.320312-18.242188-6.96875-27.707032-4.546875-.023437.007813-.046875.011719-.070312.019531-19.265625 5.003907-30.652344 25.625-25.386719 45.964844l42.28125 163.199219-10.992187-8c-10.929688-8.136719-24.753907-11.367187-38.160157-8.914063-13.117187 2.464844-24.632812 10.242188-31.816406 21.492188l-6.347656 8.8125c-2.203125 3.058594-1.972657 7.238281.550781 10.035156l118.179688 130.96875c16.90625 18.738282 40.074218 29.035156 63.617187 29.035156 6.804687 0 13.582031-.863281 20.167969-2.574218l88.414062-22.972656c45.367188-11.785157 72.101563-60.671876 59.601563-108.976563-5.546875-21.441406-9.675781-37.417969-13.027344-50.386719zm-50.597656 143.878906-88.414063 22.96875c-24.140625 6.273438-50.148437-2.039062-67.882812-21.691406l-113.851563-126.171875 2.6875-3.734375c.078125-.109375.15625-.21875.226563-.335937 4.800781-7.632813 12.5625-12.925781 21.417968-14.617188 9.085938-1.628906 18.4375.589844 25.820313 6.125l29.035156 21.121094c2.734375 1.988281 6.417969 2.042969 9.207031.144531 2.792969-1.902344 4.089844-5.347656 3.246094-8.617187l-47.875-184.800781c-3.054687-11.789063 3.167969-23.644532 13.871094-26.457032l.054688-.011718c5.191406-1.3125 10.695312-.386719 15.171874 2.550781 4.925782 3.179687 8.457032 8.117187 9.878907 13.804687l28.941406 111.402344c.089844.390625.183594.789062.289063 1.183594.042968.175781.09375.351562.152343.523437l12.371094 47.609375c1.109375 4.273438 5.476563 6.839844 9.753906 5.730469 4.277344-1.109375 6.84375-5.476563 5.730469-9.753906l-12.746094-49.054688c-2.515625-11.5 3.679688-22.835937 14.136719-25.554687l.644531-.164063c5.191406-1.3125 10.695313-.386719 15.171875 2.550781 4.929688 3.179688 8.460938 8.117188 9.878907 13.808594l11.324218 43.582032c1.109375 4.277343 5.476563 6.84375 9.753906 5.734374 4.273438-1.113281 6.839844-5.480468 5.730469-9.757812l-8.875-34.160156-.007812-.035156c-1.535157-5.660157-.855469-11.691407 1.898437-16.871094 2.464844-4.769532 6.84375-8.269532 12.042969-9.621094s10.726563-.425781 15.203125 2.542969c4.929688 3.179687 8.460938 8.117187 9.878906 13.808593l8.382813 32.261719c1.109375 4.277344 5.476562 6.84375 9.753906 5.730469 4.277344-1.109375 6.839844-5.476562 5.730469-9.753906l-4.527344-17.421875-.011719-.046875c-1.53125-5.664063-.851562-11.695313 1.90625-16.871094 2.480469-4.746094 6.835938-8.234375 12.011719-9.613281l.605469-.160157c10.714843-2.78125 21.945312 4.527344 25.03125 16.300782 10.023437 38.207031 13.378906 51.199218 22.351562 85.925781 3.351563 12.96875 7.484375 28.945313 13.03125 50.390625 10.296875 39.761719-11.296875 79.90625-48.132812 89.476562zm0 0"/><path d="m110.601562 149.496094-40.574218-5.214844c11.726562-40.761719 37.691406-75.960938 73.179687-99.191406 34.257813-22.492188 74.949219-32.683594 111.628907-27.96875 23.90625 3.078125 48.089843 12.746094 69.933593 27.96875 22.710938 15.839844 41.496094 36.667968 54.921875 60.882812 2.132813 3.871094 7 5.273438 10.867188 3.140625 3.871094-2.136719 5.273437-7.003906 3.140625-10.871093-14.613281-26.363282-35.0625-49.035157-59.78125-66.28125-23.953125-16.6875-50.589844-27.304688-77.042969-30.707032-40.417969-5.199218-85.042969 5.90625-122.449219 30.460938-39.394531 25.789062-68.003906 65.089844-80.441406 110.5l-44.710937-5.75c-2.914063-.375-5.800782.882812-7.515626 3.269531-1.7148432 2.386719-1.984374 5.523437-.699218 8.164063l40.726562 83.765624c1.179688 2.421876 3.5 4.089844 6.175782 4.433594 2.675781.34375 5.339843-.679687 7.097656-2.726562l60.597656-70.734375c1.914062-2.230469 2.445312-5.332031 1.390625-8.078125-1.054687-2.742188-3.527344-4.6875-6.445313-5.0625zm-59.757812 64.199218-28.917969-59.472656 71.941407 9.253906zm0 0"/></svg>